{"title":"The Carey Treatment (1972) DVDRip.XviD","uid":8752802,"size":1374613504,"categoryP":"video","categoryS":"movies","magnet":"?xt=urn:btih:24e9a033f2db827c5d82cc5a80640dffcb225a13&amp;dn=The+Carey+Treatment+%281972%29+DVDRip.XviD&amp;tr=udp%3A%2F%2Ftracker.openbittorrent.com%3A80&amp;tr=udp%3A%2F%2Fopen.demonii.com%3A1337&amp;tr=udp%3A%2F%2Ftracker.coppersurfer.tk%3A6969&amp;tr=udp%3A%2F%2Fexodus.desync.com%3A6969","seeders":1,"leechers":0,"uploader":null,"files":1,"time":1375074716,"description":"The Carey Treatment (1972)-DVDRip.XviD.KG\n\nFormat  : AVI\nFormat/Info : Audio Video Interleave\nFile size : 1.28 GiB\nDuration : 1h 41mn\nOverall bit rate : 1 813 Kbps\nWriting application : VirtualDubMod 1.5.10.2 (build 2540/release)\nWriting library : VirtualDubMod build 2540/release\n\nVideo\nID  : 0\nFormat  : MPEG-4 Visual\nFormat profile  : Advanced Simple@L5\nFormat settings, BVOP : 2\nFormat settings, QPel : No\nFormat settings, GMC : No warppoints\nFormat settings, Matrix : Default (MPEG)\nCodec ID : XVID\nCodec ID/Hint : XviD\nDuration : 1h 41mn\nBit rate : 1 612 Kbps\nWidth : 704 pixels\nHeight  : 288 pixels\nDisplay aspect ratio: 2.40:1\nFrame rate : 23.976 fps\nColor space : YUV\nChroma subsampling  : 4:2:0\nBit depth  : 8 bits\nScan type  : Progressive\nCompression mode : Lossy\nBits/(Pixel*Frame)  : 0.332\nStream size  : 1.14 GiB (89%)\nWriting library:XviD 1.2.1 (UTC 2008-12-04)\n\nAudio\nID  : 1\nFormat  : MPEG Audio\nFormat version : Version 1\nFormat profile  : Layer 3\nMode  : Joint stereo\nCodec ID   : 55\nCodec ID/Hint  : MP3\nDuration   : 1h 41mn\nBit rate mode  : Constant\nBitrate : 192 Kbps\nChannel(s)  : 2 channels\nSampling rate : 48.0 KHz\nCompression mode  : Lossy\nStream size  : 139 MiB (11%)\nAlignment  : Aligned on interleaves\nInterleave, duration   : 42 ms (1.00 video frame)\nInterleave, preload duration : 504 ms\n","torrent":{"xt":"urn:btih:24e9a033f2db827c5d82cc5a80640dffcb225a13","amp;dn":"The+Carey+Treatment+%281972%29+DVDRip.XviD","amp;tr":["udp%3A%2F%2Ftracker.openbittorrent.com%3A80","udp%3A%2F%2Fopen.demonii.com%3A1337","udp%3A%2F%2Ftracker.coppersurfer.tk%3A6969","udp%3A%2F%2Fexodus.desync.com%3A6969"],"infoHash":"24e9a033f2db827c5d82cc5a80640dffcb225a13","infoHashBuffer":{"type":"Buffer","data":[36,233,160,51,242,219,130,124,93,130,204,90,128,100,13,255,203,34,90,19]},"announce":[],"urlList":[]}}